HIERARCHY
ROOT Bip001_Pelvis
{
  OFFSET 32.8085 95.8515 -28.6975
  CHANNELS 6 Xposition Yposition Zposition Zrotation Xrotation Yrotation
  JOINT Bip001_Spine
  {
    OFFSET 1.4188e-005 10.2191 -0.0116013
    CHANNELS 6 Xposition Yposition Zposition Zrotation Xrotation Yrotation
    JOINT Bip001_L_Thigh
    {
      OFFSET 11.0457 -10.2191 0.0116197
      CHANNELS 6 Xposition Yposition Zposition Zrotation Xrotation Yrotation
      JOINT Bip001_L_Calf
      {
        OFFSET -0.707118 -44.0221 0.360014
        CHANNELS 6 Xposition Yposition Zposition Zrotation Xrotation Yrotation
        JOINT Bip001_L_Foot
        {
          OFFSET -0.651901 -40.5938 -3.56146
          CHANNELS 6 Xposition Yposition Zposition Zrotation Xrotation Yrotation
          JOINT Bip001_L_Toe0
          {
            OFFSET 0.0530839 -10.2181 13.1504
            CHANNELS 6 Xposition Yposition Zposition Zrotation Xrotation Yrotation
            End Site
            {
              OFFSET -1.02532e-005 0 7.55606
            }
          }
        }
      }
    }
    JOINT Bip001_R_Thigh
    {
      OFFSET -11.0458 -10.2191 0.0115893
      CHANNELS 6 Xposition Yposition Zposition Zrotation Xrotation Yrotation
      JOINT Bip001_R_Calf
      {
        OFFSET 0.706994 -44.0221 0.35984
        CHANNELS 6 Xposition Yposition Zposition Zrotation Xrotation Yrotation
        JOINT Bip001_R_Foot
        {
          OFFSET 0.651786 -40.5938 -3.5613
          CHANNELS 6 Xposition Yposition Zposition Zrotation Xrotation Yrotation
          JOINT Bip001_R_Toe0
          {
            OFFSET -0.0531479 -10.2181 13.1504
            CHANNELS 6 Xposition Yposition Zposition Zrotation Xrotation Yrotation
            End Site
            {
              OFFSET -1.02894e-005 0 7.55606
            }
          }
        }
      }
    }
    JOINT Bip001_Spine1
    {
      OFFSET 1.87041e-005 14.5736 1.08638
      CHANNELS 6 Xposition Yposition Zposition Zrotation Xrotation Yrotation
      JOINT Bip001_Spine2
      {
        OFFSET 2.24614e-005 14.5058 -1.69078
        CHANNELS 6 Xposition Yposition Zposition Zrotation Xrotation Yrotation
        JOINT Bip001_Neck
        {
          OFFSET 2.20278e-005 15.3945 -0.489414
          CHANNELS 6 Xposition Yposition Zposition Zrotation Xrotation Yrotation
          JOINT Bip001_L_Clavicle
          {
            OFFSET 6.06036 -0.000579998 0.00836775
            CHANNELS 6 Xposition Yposition Zposition Zrotation Xrotation Yrotation
            JOINT Bip001_L_UpperArm
            {
              OFFSET 11.5509 -0.0600302 0.00193952
              CHANNELS 6 Xposition Yposition Zposition Zrotation Xrotation Yrotation
              JOINT Bip001_L_Forearm
              {
                OFFSET 25.9523 0.0806089 -2.15551
                CHANNELS 6 Xposition Yposition Zposition Zrotation Xrotation Yrotation
                JOINT Bip001_L_Hand
                {
                  OFFSET 32.2476 0.153767 1.63968
                  CHANNELS 6 Xposition Yposition Zposition Zrotation Xrotation Yrotation
                  JOINT Bip001_L_Finger0
                  {
                    OFFSET 6.04639 -2.20976 5.90322
                    CHANNELS 6 Xposition Yposition Zposition Zrotation Xrotation Yrotation
                    End Site
                    {
                      OFFSET 4.22376 -1.43895 0.606486
                    }
                  }
                  JOINT Bip001_L_Finger1
                  {
                    OFFSET 11.0826 -0.704819 -0.198153
                    CHANNELS 6 Xposition Yposition Zposition Zrotation Xrotation Yrotation
                    End Site
                    {
                      OFFSET 6.20028 -0.397518 -0.0787166
                    }
                  }
                }
              }
            }
          }
          JOINT Bip001_R_Clavicle
          {
            OFFSET -6.06036 -0.000563197 0.00835105
            CHANNELS 6 Xposition Yposition Zposition Zrotation Xrotation Yrotation
            JOINT Bip001_R_UpperArm
            {
              OFFSET -11.5509 -0.0599978 0.00190698
              CHANNELS 6 Xposition Yposition Zposition Zrotation Xrotation Yrotation
              JOINT Bip001_R_Forearm
              {
                OFFSET -25.9523 0.080682 -2.1559
                CHANNELS 6 Xposition Yposition Zposition Zrotation Xrotation Yrotation
                JOINT Bip001_R_Hand
                {
                  OFFSET -32.2476 0.153858 1.6399
                  CHANNELS 6 Xposition Yposition Zposition Zrotation Xrotation Yrotation
                  JOINT Bip001_R_Finger0
                  {
                    OFFSET -6.04641 -2.20975 5.9032
                    CHANNELS 6 Xposition Yposition Zposition Zrotation Xrotation Yrotation
                    End Site
                    {
                      OFFSET -4.22376 -1.43894 0.606473
                    }
                  }
                  JOINT Bip001_R_Finger1
                  {
                    OFFSET -11.0826 -0.70479 -0.198183
                    CHANNELS 6 Xposition Yposition Zposition Zrotation Xrotation Yrotation
                    End Site
                    {
                      OFFSET -6.20028 -0.397501 -0.0787338
                    }
                  }
                }
              }
            }
          }
          JOINT Bip001_Head
          {
            OFFSET 1.09673e-005 11.2744 2.05948
            CHANNELS 6 Xposition Yposition Zposition Zrotation Xrotation Yrotation
            End Site
            {
              OFFSET 2.89576e-005 20.8808 -2.77728e-005
            }
          }
        }
      }
    }
  }
}
MOTION
Frames:	7
Frame Time:	0.04
32.2448 95.904 -28.5612 0.280621 -0.470346 0.807998 1.4188e-005 10.2191 -0.0116013 -0.127406 2.86006 0.0242401 11.0458 -10.2192 0.0116197 5.30503 -3.57159 6.1104 -0.707118 -44.0221 0.360014 -0.544384 7.2327 -10.626 -0.651902 -40.5938 -3.56146 4.32404 -1.98978 -0.132638 0.0530839 -10.2181 13.1504 -3.27583 -4.39767 5.16229 -11.0458 -10.2191 0.0115893 -2.91059 -3.84923 -2.37464 0.706994 -44.0221 0.35984 0.0624363 10.4875 0.28357 0.651786 -40.5938 -3.5613 -5.17174 -9.94678 3.4365 -0.0531479 -10.2181 13.1504 1.88591 -6.7282 2.38266 1.87041e-005 14.5736 1.08638 -0.222589 5.72007 0.0640001 2.24614e-005 14.5058 -1.69078 -0.22259 5.72007 0.0640104 2.20278e-005 15.3945 -0.489414 0.673134 -4.14934 -6.86158 6.06036 -0.000579998 0.00836775 -25.5068 4.01545 1.04434 11.5509 -0.0600302 0.00193952 -49.2499 41.1111 -2.38003 25.9523 0.0806089 -2.15551 12.8359 0.825033 -25.0917 32.2476 0.153767 1.63968 8.0597 0.89785 -2.35738 6.04639 -2.20976 5.90322 -0 -3.18055e-015 -0 11.0826 -0.704819 -0.198153 -3.18055e-015 -3.18056e-015 -0 -6.06037 -0.000563197 0.00835105 27.8027 12.1046 15.2432 -11.5509 -0.0599978 0.00190698 42.9368 45.0974 11.4763 -25.9523 0.080682 -2.1559 -8.71017 7.81647 7.76364 -32.2476 0.153858 1.63991 -8.99233 0.617745 3.08432 -6.04641 -2.20974 5.90321 -3.18055e-015 6.36111e-015 7.95139e-016 -11.0826 -0.704789 -0.198184 0 6.36111e-015 -0 1.09673e-005 11.2744 2.05948 -2.74442 16.1514 -5.33816 
32.2331 95.9022 -28.5276 0.28414 -0.466538 0.873107 1.4188e-005 10.2191 -0.0116013 -0.127404 2.85498 0.02424 11.0458 -10.2192 0.0116197 5.31928 -3.55393 6.01344 -0.707118 -44.0221 0.360014 -0.58259 7.20806 -10.5993 -0.651902 -40.5938 -3.56146 4.33048 -1.99268 -0.132638 0.0530839 -10.2181 13.1504 -3.28922 -4.39591 5.1595 -11.0458 -10.2191 0.0115893 -2.91923 -3.83806 -2.5104 0.706994 -44.0221 0.35984 0.0509135 10.5199 0.275944 0.651786 -40.5938 -3.5613 -5.15661 -9.97613 3.51353 -0.0531479 -10.2181 13.1504 1.88663 -6.74538 2.38275 1.87041e-005 14.5736 1.08638 -0.236506 5.7106 0.0601074 2.24614e-005 14.5058 -1.69078 -0.236504 5.7106 0.0600879 2.20278e-005 15.3945 -0.489414 0.711792 -4.09431 -6.92339 6.06036 -0.000579998 0.00836775 -25.5439 3.92206 1.11697 11.5509 -0.0600302 0.00193952 -49.3127 41.1931 -2.21447 25.9523 0.0806089 -2.15551 12.6686 0.457208 -24.9832 32.2476 0.153767 1.63968 7.95743 0.847053 -2.20627 6.04639 -2.20976 5.90322 -2.64834e-031 9.54166e-015 1.59028e-015 11.0826 -0.704819 -0.198153 -5.29669e-031 9.54167e-015 3.18055e-015 -6.06037 -0.000563197 0.00835105 27.7379 12.0942 15.3825 -11.5509 -0.0599978 0.00190698 43.075 44.9249 11.2166 -25.9523 0.080682 -2.1559 -8.82622 7.77486 7.85893 -32.2476 0.153858 1.63991 -8.99999 0.654135 3.05799 -6.04641 -2.20974 5.90321 0 6.36111e-015 -0 -11.0826 -0.704789 -0.198184 8.82782e-032 6.36111e-015 -7.95139e-016 1.09673e-005 11.2744 2.05948 -2.69747 16.1017 -5.40542 
32.223 95.9009 -28.4935 0.282152 -0.459073 0.926828 1.4188e-005 10.2191 -0.0116013 -0.127162 2.84566 0.0194317 11.0458 -10.2192 0.0116197 5.32374 -3.57578 6.03781 -0.707118 -44.0221 0.360014 -0.54776 7.29019 -10.6019 -0.651902 -40.5938 -3.56146 4.24507 -2.10552 -0.132647 0.0530839 -10.2181 13.1504 -3.29072 -4.31682 5.17284 -11.0458 -10.2191 0.0115893 -2.90215 -3.78337 -2.63955 0.706994 -44.0221 0.35984 0.0328639 10.4791 0.289208 0.651786 -40.5938 -3.5613 -5.14947 -10.0063 3.55262 -0.0531479 -10.2181 13.1504 1.88802 -6.75501 2.39116 1.87041e-005 14.5736 1.08638 -0.241146 5.69082 0.047756 2.24614e-005 14.5058 -1.69078 -0.241113 5.69082 0.0475075 2.20278e-005 15.3945 -0.489414 0.691213 -4.03941 -6.94716 6.06036 -0.000579998 0.00836775 -25.5708 3.83764 1.19839 11.5509 -0.0600302 0.00193952 -49.3425 41.2171 -2.05337 25.9523 0.0806089 -2.15551 12.3579 -0.0986551 -24.8591 32.2476 0.153767 1.63968 8.07422 0.985429 -1.94852 6.04639 -2.20976 5.90322 -3.53112e-031 6.36111e-015 3.18055e-015 11.0826 -0.704819 -0.198153 -5.29669e-031 6.36111e-015 4.77083e-015 -6.06037 -0.000563197 0.00835105 27.6556 12.0705 15.5316 -11.5509 -0.0599978 0.00190698 43.4583 44.8313 10.7435 -25.9523 0.080682 -2.1559 -9.10178 7.65233 8.09579 -32.2476 0.153858 1.63991 -9.35303 0.741968 2.98541 -6.04641 -2.20974 5.90321 3.18055e-015 -3.18055e-015 7.95139e-016 -11.0826 -0.704789 -0.198184 3.18055e-015 -3.18056e-015 -7.95139e-016 1.09673e-005 11.2744 2.05948 -2.62713 16.1011 -5.45959 
32.2049 95.8972 -28.4524 0.261997 -0.479551 0.937731 1.4188e-005 10.2191 -0.0116013 -0.127049 2.84178 0.0171885 11.0458 -10.2192 0.0116197 5.38663 -3.52378 5.9958 -0.707118 -44.0221 0.360014 -0.577977 7.297 -10.5266 -0.651902 -40.5938 -3.56146 4.0373 -2.30036 -0.115935 0.0530839 -10.2181 13.1504 -3.34829 -4.19873 5.23302 -11.0458 -10.2191 0.0115893 -2.86461 -3.71739 -2.66098 0.706994 -44.0221 0.35984 0.0238987 10.4587 0.279631 0.651786 -40.5938 -3.5613 -5.14677 -10.0101 3.5954 -0.0531479 -10.2181 13.1504 1.88777 -6.77174 2.38318 1.87041e-005 14.5736 1.08638 -0.247867 5.68383 0.0476707 2.24614e-005 14.5058 -1.69078 -0.247802 5.68385 0.0474526 2.20278e-005 15.3945 -0.489414 0.603828 -4.06923 -6.95753 6.06036 -0.000579998 0.00836775 -25.5254 3.84918 1.29277 11.5509 -0.0600302 0.00193952 -49.4167 41.1318 -1.92863 25.9523 0.0806089 -2.15551 12.254 -0.26729 -24.7346 32.2476 0.153767 1.63968 8.00727 0.97589 -1.86931 6.04639 -2.20976 5.90322 6.36111e-015 3.18055e-015 -1.59028e-015 11.0826 -0.704819 -0.198153 6.36111e-015 -3.18056e-015 -0 -6.06037 -0.000563197 0.00835105 27.71 12.1138 15.5576 -11.5509 -0.0599978 0.00190698 43.7868 44.6991 10.1599 -25.9523 0.080682 -2.1559 -9.45551 7.63942 8.45819 -32.2476 0.153858 1.63991 -9.56309 0.797206 3.13507 -6.04641 -2.20974 5.90321 0 3.18055e-015 -0 -11.0826 -0.704789 -0.198184 0 0 -0 1.09673e-005 11.2744 2.05948 -2.5125 16.2345 -5.52442 
32.191 95.8955 -28.4121 0.289718 -0.477541 0.951165 1.4188e-005 10.2191 -0.0116013 -0.126654 2.83948 0.0152011 11.0458 -10.2192 0.0116197 5.38367 -3.47146 5.87577 -0.707118 -44.0221 0.360014 -0.57996 7.24335 -10.3563 -0.651902 -40.5938 -3.56146 3.7529 -2.53883 -0.0968461 0.0530839 -10.2181 13.1504 -3.42038 -4.04093 5.32573 -11.0458 -10.2191 0.0115893 -2.87264 -3.71857 -2.695 0.706994 -44.0221 0.35984 0.00940236 10.4911 0.268635 0.651786 -40.5938 -3.5613 -5.15282 -10.0585 3.62302 -0.0531479 -10.2181 13.1504 1.88606 -6.7546 2.37465 1.87041e-005 14.5736 1.08638 -0.264049 5.67775 0.0476301 2.24614e-005 14.5058 -1.69078 -0.264026 5.67777 0.0474265 2.20278e-005 15.3945 -0.489414 0.475442 -4.10702 -6.93952 6.06036 -0.000579998 0.00836775 -25.4224 3.89745 1.32322 11.5509 -0.0600302 0.00193952 -49.5115 40.954 -1.81987 25.9523 0.0806089 -2.15551 12.3565 0.00220863 -24.6712 32.2476 0.153767 1.63968 7.85132 0.951004 -1.91983 6.04639 -2.20976 5.90322 3.18055e-015 -1.27222e-014 3.18055e-015 11.0826 -0.704819 -0.198153 3.18055e-015 -6.36111e-015 1.59028e-015 -6.06037 -0.000563197 0.00835105 27.7752 12.1538 15.5709 -11.5509 -0.0599978 0.00190698 44.1917 44.6306 9.48097 -25.9523 0.080682 -2.1559 -9.89883 7.49765 8.8715 -32.2476 0.153858 1.63991 -9.62805 0.899864 3.34357 -6.04641 -2.20974 5.90321 -4.41391e-032 3.18055e-015 7.95139e-016 -11.0826 -0.704789 -0.198184 3.18055e-015 3.18056e-015 7.95139e-016 1.09673e-005 11.2744 2.05948 -2.37508 16.2578 -5.58992 
32.187 95.888 -28.3805 0.310154 -0.460339 0.989661 1.4188e-005 10.2191 -0.0116013 -0.125766 2.83721 0.0129811 11.0458 -10.2192 0.0116197 5.32645 -3.49129 5.91625 -0.707118 -44.0221 0.360014 -0.55131 7.24708 -10.6105 -0.651902 -40.5938 -3.56146 4.26726 -2.11212 -0.13088 0.0530839 -10.2181 13.1504 -3.28033 -4.46316 5.17409 -11.0458 -10.2191 0.0115893 -2.8887 -3.72086 -2.83821 0.706994 -44.0221 0.35984 -0.0136622 10.5522 0.275967 0.651786 -40.5938 -3.5613 -5.13274 -10.1331 3.72388 -0.0531479 -10.2181 13.1504 1.883 -6.72668 2.35843 1.87041e-005 14.5736 1.08638 -0.276216 5.67123 0.0429807 2.24614e-005 14.5058 -1.69078 -0.276102 5.67124 0.0429291 2.20278e-005 15.3945 -0.489414 0.347553 -4.23745 -6.90761 6.06036 -0.000579998 0.00836775 -25.3305 4.03569 1.3794 11.5509 -0.0600302 0.00193952 -49.5761 40.8796 -1.69332 25.9523 0.0806089 -2.15551 12.3853 0.115364 -24.7083 32.2476 0.153767 1.63968 7.83728 0.90895 -1.96091 6.04639 -2.20976 5.90322 -0 -6.36111e-015 -0 11.0826 -0.704819 -0.198153 3.18055e-015 -3.18056e-015 1.59028e-015 -6.06037 -0.000563197 0.00835105 27.8663 12.2697 15.5136 -11.5509 -0.0599978 0.00190698 44.6923 44.8546 8.57071 -25.9523 0.080682 -2.1559 -10.5349 6.63164 9.48574 -32.2476 0.153858 1.63991 -9.40406 1.03325 3.49186 -6.04641 -2.20974 5.90321 -3.53112e-031 6.36111e-015 3.18055e-015 -11.0826 -0.704789 -0.198184 0 0 -0 1.09673e-005 11.2744 2.05948 -2.23761 16.3799 -5.63574 
32.1476 95.8843 -28.33 0.238439 -0.487367 1.05372 1.4188e-005 10.2191 -0.0116013 -0.125403 2.83483 0.00733586 11.0458 -10.2192 0.0116197 5.46301 -3.48756 5.97839 -0.707118 -44.0221 0.360014 -0.620901 7.36019 -10.6356 -0.651902 -40.5938 -3.56146 4.25053 -2.20705 -0.126996 0.0530839 -10.2181 13.1504 -3.25606 -4.33887 5.14462 -11.0458 -10.2191 0.0115893 -2.77802 -3.58656 -2.95596 0.706994 -44.0221 0.35984 -0.0627207 10.4263 0.316308 0.651786 -40.5938 -3.5613 -5.13549 -10.1032 3.73583 -0.0531479 -10.2181 13.1504 1.88651 -6.77194 2.37245 1.87041e-005 14.5736 1.08638 -0.248748 5.66731 0.0230328 2.24614e-005 14.5058 -1.69078 -0.248788 5.6673 0.0232095 2.20278e-005 15.3945 -0.489414 0.225634 -4.3316 -6.89985 6.06036 -0.000579998 0.00836775 -25.2572 4.12059 1.47241 11.5509 -0.0600302 0.00193952 -49.6154 41.0264 -1.58322 25.9523 0.0806089 -2.15551 12.3123 -0.169677 -24.7899 32.2476 0.153767 1.63968 7.8133 0.853543 -1.89153 6.04639 -2.20976 5.90322 3.53112e-031 -6.36111e-015 3.18055e-015 11.0826 -0.704819 -0.198153 -0 0 1.59028e-015 -6.06037 -0.000563197 0.00835105 28.0271 12.3747 15.4704 -11.5509 -0.0599978 0.00190698 45.1305 44.8264 7.587 -25.9523 0.080682 -2.1559 -11.0606 6.08571 10.1098 -32.2476 0.153858 1.63991 -9.38655 1.15163 3.7375 -6.04641 -2.20974 5.90321 4.41391e-032 3.18055e-015 -7.95139e-016 -11.0826 -0.704789 -0.198184 -4.41391e-032 -3.18056e-015 -7.95139e-016 1.09673e-005 11.2744 2.05948 -2.10973 16.5182 -5.69678 
